# File created by Blade
# Date/Time:  Tue Jan 27 20:02:46 2015
#---------------------------------------------------------
:version 1.10
:name HOM
:units
  mass 1.0
  length 1.000000
  angle deg
:documentation
     Acclaim Skeleton File
:root
   axis xyz
   order TX TY TZ RX RY RZ
   position 0.000000 0.000000 0.000000
   orientation 0 0 0
:bonedata
   begin
      id 1
      name Spine_dum
      direction 0.000000 1.000000 0.000000
      length 6.116652
      axis 0.0 0.0 0.0 xyz
   end
   begin
      id 2
      name LeftUpLeg_dum
      direction 1.000000 0.000000 0.000000
      length 4.711765
      axis 0.0 0.0 0.0 xyz
   end
   begin
      id 3
      name RightUpLeg_dum
      direction -1.000000 0.000000 0.000000
      length 4.711765
      axis 0.0 0.0 0.0 xyz
   end
   begin
      id 4
      name Spine
      direction 0.000000 1.000000 0.000000
      length 0.000000
      axis 0.0 0.0 0.0 xyz
      dof rx ry rz
   end
   begin
      id 5
      name Spine_dum1
      direction 0.000000 1.000000 0.000000
      length 15.225563
      axis 0.0 0.0 0.0 xyz
   end
   begin
      id 6
      name Spine_dum2
      direction 0.000000 1.000000 0.000000
      length 8.977654
      axis 0.0 0.0 0.0 xyz
   end
   begin
      id 7
      name Spine_dum3
      direction 0.000000 1.000000 0.000000
      length 8.977654
      axis 0.0 0.0 0.0 xyz
   end
   begin
      id 8
      name Head
      direction 0.000000 1.000000 0.000000
      length 4.527550
      axis 0.0 0.0 0.0 xyz
      dof rx ry rz
   end
   begin
      id 9
      name LeftShoulder
      direction 1.000000 0.000000 0.000000
      length 7.110130
      axis 0.0 0.0 -90.0 xyz
      dof rx ry rz
   end
   begin
      id 10
      name LeftArm
      direction 1.000000 0.000000 0.000000
      length 10.398341
      axis 0.0 0.0 -90.0 xyz
      dof rx ry rz
   end
   begin
      id 11
      name LeftForeArm
      direction 1.000000 0.000000 0.000000
      length 8.888997
      axis 0.0 0.0 -90.0 xyz
      dof ry rz rx
   end
   begin
      id 12
      name LeftHand
      direction 0.000000 0.000000 0.000000
      length 0.000000
      axis 0.0 0.0 -90.0 xyz
      dof rx ry rz
   end
   begin
      id 13
      name LeftHand_dum1
      direction 0.000000 0.000000 0.000000
      length 0.000000
      axis 0.0 0.0 -90.0 xyz
   end
   begin
      id 14
      name LeftHand_dum2
      direction 1.000000 0.000000 0.000000
      length 3.937000
      axis 0.0 0.0 -90.0 xyz
   end
   begin
      id 15
      name LeftHandThumb1
      direction 0.000000 0.000000 1.000000
      length 3.937000
      axis 0.0 0.0 -90.0 xyz
      dof rx rz ry
   end
   begin
      id 16
      name RightShoulder
      direction -1.000000 0.000000 0.000000
      length 7.110130
      axis 0.0 0.0 90.0 xyz
      dof rx ry rz
   end
   begin
      id 17
      name RightArm
      direction -1.000000 0.000000 0.000000
      length 10.398341
      axis 0.0 0.0 90.0 xyz
      dof rx ry rz
   end
   begin
      id 18
      name RightForeArm
      direction -1.000000 0.000000 0.000000
      length 8.888997
      axis 0.0 0.0 90.0 xyz
      dof ry rz rx
   end
   begin
      id 19
      name RightHand
      direction 0.000000 0.000000 0.000000
      length 0.000000
      axis 0.0 0.0 90.0 xyz
      dof rx ry rz
   end
   begin
      id 20
      name RightHand_dum1
      direction 0.000000 0.000000 0.000000
      length 0.000000
      axis 0.0 0.0 90.0 xyz
   end
   begin
      id 21
      name RightHand_dum2
      direction -1.000000 0.000000 0.000000
      length 3.937000
      axis 0.0 0.0 90.0 xyz
   end
   begin
      id 22
      name RightHandThumb1
      direction 0.000000 0.000000 1.000000
      length 3.937000
      axis 0.0 0.0 90.0 xyz
      dof rx rz ry
   end
   begin
      id 23
      name LeftUpLeg
      direction 0.000000 -1.000000 0.000000
      length 15.510451
      axis 0.0 0.0 0.0 xyz
      dof rx ry rz
   end
   begin
      id 24
      name LeftLeg
      direction 0.000000 -1.000000 0.000000
      length 14.858061
      axis 0.0 0.0 0.0 xyz
      dof rx ry rz
   end
   begin
      id 25
      name LeftFoot
      direction 0.000000 -0.258819 0.965926
      length 5.128852
      axis 15.0 0.0 0.0 xyz
      dof rx ry rz
   end
   begin
      id 26
      name LeftToeBase
      direction 0.000000 0.000000 1.000000
      length 2.952750
      axis 0.0 0.0 0.0 xyz
      dof rx ry rz
   end
   begin
      id 27
      name RightUpLeg
      direction 0.000000 -1.000000 0.000000
      length 15.510451
      axis 0.0 0.0 0.0 xyz
      dof rx ry rz
   end
   begin
      id 28
      name RightLeg
      direction 0.000000 -1.000000 0.000000
      length 14.858061
      axis 0.0 0.0 0.0 xyz
      dof rx ry rz
   end
   begin
      id 29
      name RightFoot
      direction 0.000000 -0.258819 0.965926
      length 5.128852
      axis 15.0 0.0 0.0 xyz
      dof rx ry rz
   end
   begin
      id 30
      name RightToeBase
      direction 0.000000 0.000000 1.000000
      length 2.952750
      axis 0.0 0.0 0.0 xyz
      dof rx ry rz
   end
:hierarchy
   begin
      root Spine_dum LeftUpLeg_dum RightUpLeg_dum
      Spine_dum Spine
      LeftUpLeg_dum LeftUpLeg
      RightUpLeg_dum RightUpLeg
      Spine Spine_dum1 Spine_dum2 Spine_dum3
      Spine_dum1 Head
      Spine_dum2 LeftShoulder
      Spine_dum3 RightShoulder
      LeftShoulder LeftArm
      LeftArm LeftForeArm
      LeftForeArm LeftHand
      LeftHand LeftHand_dum1 LeftHand_dum2
      LeftHand_dum1 LeftHandThumb1
      RightShoulder RightArm
      RightArm RightForeArm
      RightForeArm RightHand
      RightHand RightHand_dum1 RightHand_dum2
      RightHand_dum1 RightHandThumb1
      LeftUpLeg LeftLeg
      LeftLeg LeftFoot
      LeftFoot LeftToeBase
      RightUpLeg RightLeg
      RightLeg RightFoot
      RightFoot RightToeBase
   end

# File created by Blade
# Date/Time:  Tue Jan 27 20:02:37 2015
# Frame Rate: 120.000 fps
#------------------------------------------------------
:FULLY-SPECIFIED
:DEGREES
1
root 4.102511 32.296043 4.157795 -1.025773 -2.755053 0.529637
Spine 4.414614 6.498103 -0.902006
Head -14.875218 -0.633219 4.242000
LeftShoulder -16.398208 -5.157074 42.476127
LeftArm 12.163289 -14.044369 -42.276943
LeftForeArm 12.854657 -0.000000 -8.512331
LeftHand 5.447772 -0.000000 -11.030294
LeftHandThumb1 -26.253704 0.000000 33.147579
RightShoulder -21.576209 -20.602832 -38.013067
RightArm 14.444399 20.047112 47.254609
RightForeArm -15.988724 0.000000 6.101467
RightHand 16.324399 0.000000 11.538016
RightHandThumb1 -24.326973 -0.000000 -32.862282
LeftUpLeg 7.152172 -2.281003 -2.468830
LeftLeg 1.350558 -0.000000 -0.000000
LeftFoot -18.853961 18.083233 -22.495205
LeftToeBase 16.612282 -0.000000 -0.000000
RightUpLeg 5.513597 -4.363512 4.907470
RightLeg 0.060190 -0.000000 -0.000000
RightFoot -12.090735 -15.490986 14.664198
RightToeBase 10.994121 -0.000000 -0.000000
2
root 4.101721 32.296134 4.157701 -1.030730 -2.743937 0.532073
Spine 4.424865 6.494650 -0.901332
Head -14.880624 -0.621959 4.239363
LeftShoulder -16.390947 -5.183603 42.481597
LeftArm 12.152040 -14.010306 -42.266518
LeftForeArm 12.853564 -0.000000 -8.507252
LeftHand 5.401497 -0.000000 -11.024075
LeftHandThumb1 -26.253704 0.000000 33.147579
RightShoulder -21.577044 -20.604668 -38.005507
RightArm 14.459957 20.029428 47.251634
RightForeArm -15.963098 0.000000 6.079797
RightHand 16.342066 0.000000 11.535275
RightHandThumb1 -24.326973 -0.000000 -32.862282
LeftUpLeg 7.164278 -2.265737 -2.467090
LeftLeg 1.332404 -0.000000 -0.000000
LeftFoot -18.849179 18.058408 -22.513812
LeftToeBase 16.630559 -0.000000 -0.000000
RightUpLeg 5.523247 -4.387805 4.904388
RightLeg 0.045108 -0.000000 -0.000000
RightFoot -12.022081 -15.512178 14.562554
RightToeBase 10.786286 -0.000000 -0.000000
3
root 4.101181 32.296309 4.157163 -1.031288 -2.725931 0.533036
Spine 4.426993 6.480420 -0.894799
Head -14.874613 -0.621659 4.228376
LeftShoulder -16.380736 -5.185645 42.481807
LeftArm 12.149766 -13.987440 -42.266380
LeftForeArm 12.878803 -0.000000 -8.506316
LeftHand 5.426555 -0.000000 -11.006575
LeftHandThumb1 -26.253704 0.000000 33.147579
RightShoulder -21.571073 -20.618126 -38.007049
RightArm 14.480035 20.041374 47.261302
RightForeArm -15.962282 -0.000000 6.070322
RightHand 16.359591 0.000000 11.511273
RightHandThumb1 -24.326973 -0.000000 -32.862282
LeftUpLeg 7.158252 -2.281936 -2.463345
LeftLeg 1.331075 -0.000000 -0.000000
LeftFoot -18.833785 18.070357 -22.450497
LeftToeBase 16.705994 -0.000000 -0.000000
RightUpLeg 5.526260 -4.395221 4.903282
RightLeg 0.046470 -0.000000 -0.000000
RightFoot -12.077800 -15.478371 14.659199
RightToeBase 11.006706 -0.000000 -0.000000
4
root 4.099984 32.296319 4.156739 -1.030588 -2.717979 0.538126
Spine 4.430888 6.484377 -0.899931
Head -14.882343 -0.611078 4.227532
LeftShoulder -16.365324 -5.185212 42.478195
LeftArm 12.178852 -13.959066 -42.254971
LeftForeArm 12.876246 0.000000 -8.553823
LeftHand 5.412428 -0.000000 -10.993581
LeftHandThumb1 -26.253704 0.000000 33.147579
RightShoulder -21.581933 -20.627995 -37.988074
RightArm 14.505022 19.997624 47.243502
RightForeArm -15.880644 0.000000 6.040806
RightHand 16.369450 -0.000000 11.534102
RightHandThumb1 -24.326973 -0.000000 -32.862282
LeftUpLeg 7.157251 -2.250538 -2.459413
LeftLeg 1.327455 -0.000000 -0.000000
LeftFoot -18.809708 18.034648 -22.441629
LeftToeBase 16.727207 -0.000000 -0.000000
RightUpLeg 5.525592 -4.418597 4.900537
RightLeg 0.040253 -0.000000 -0.000000
RightFoot -12.030778 -15.506738 14.575961
RightToeBase 10.885277 -0.000000 -0.000000
5
root 4.099503 32.296459 4.155807 -1.023952 -2.705189 0.540868
Spine 4.425708 6.479758 -0.902435
Head -14.883240 -0.603109 4.226860
LeftShoulder -16.359986 -5.182778 42.477867
LeftArm 12.189622 -13.946407 -42.247677
LeftForeArm 12.843349 -0.000000 -8.558206
LeftHand 5.430654 -0.000000 -11.026130
LeftHandThumb1 -26.253704 0.000000 33.147579
RightShoulder -21.576626 -20.618498 -37.989188
RightArm 14.503223 19.996364 47.251639
RightForeArm -15.855282 -0.000000 6.035871
RightHand 16.351045 -0.000000 11.496506
RightHandThumb1 -24.326973 -0.000000 -32.862282
LeftUpLeg 7.140566 -2.245081 -2.461643
LeftLeg 1.350734 -0.000000 -0.000000
LeftFoot -18.818996 18.000417 -22.489197
LeftToeBase 16.615062 -0.000000 -0.000000
RightUpLeg 5.520546 -4.396114 4.902907
RightLeg 0.040859 -0.000000 -0.000000
RightFoot -12.080050 -15.516430 14.638861
RightToeBase 10.986391 -0.000000 -0.000000
6
root 4.098279 32.296696 4.155874 -1.022941 -2.692340 0.540968
Spine 4.423746 6.470917 -0.902750
Head -14.880005 -0.592266 4.227795
LeftShoulder -16.356966 -5.197800 42.484600
LeftArm 12.188493 -13.917062 -42.240018
LeftForeArm 12.836942 -0.000000 -8.563579
LeftHand 5.433357 -0.000000 -11.009877
LeftHandThumb1 -26.253704 0.000000 33.147579
RightShoulder -21.557968 -20.599425 -37.999754
RightArm 14.475849 20.026537 47.264271
RightForeArm -15.878803 -0.000000 6.052334
RightHand 16.364438 -0.000000 11.504046
RightHandThumb1 -24.326973 -0.000000 -32.862282
LeftUpLeg 7.152526 -2.261562 -2.459114
LeftLeg 1.312742 -0.000000 -0.000000
LeftFoot -18.796426 18.022731 -22.446528
LeftToeBase 16.748908 -0.000000 -0.000000
RightUpLeg 5.525515 -4.422404 4.905013
RightLeg 0.024150 -0.000000 -0.000000
RightFoot -12.031440 -15.530456 14.592900
RightToeBase 10.875150 -0.000000 -0.000000
7
root 4.096991 32.296784 4.155237 -1.020626 -2.682608 0.542702
Spine 4.422776 6.467983 -0.900822
Head -14.884362 -0.598116 4.221388
LeftShoulder -16.348925 -5.200537 42.477076
LeftArm 12.204693 -13.910949 -42.227552
LeftForeArm 12.813290 -0.000000 -8.591431
LeftHand 5.494375 0.000000 -11.010961
LeftHandThumb1 -26.253704 0.000000 33.147579
RightShoulder -21.549072 -20.594389 -37.991956
RightArm 14.474940 20.033399 47.259359
RightForeArm -15.847138 0.000000 6.082243
RightHand 16.245498 -0.000000 11.466163
RightHandThumb1 -24.326973 -0.000000 -32.862282
LeftUpLeg 7.150601 -2.268094 -2.461678
LeftLeg 1.311692 -0.000000 -0.000000
LeftFoot -18.792156 18.030151 -22.475812
LeftToeBase 16.668970 -0.000000 -0.000000
RightUpLeg 5.525442 -4.407270 4.905816
RightLeg 0.018882 -0.000000 -0.000000
RightFoot -12.039134 -15.551288 14.591627
RightToeBase 10.897678 -0.000000 -0.000000
